<?xml version="1.0" encoding="UTF-8"?>
<svg width="22px" height="20px" viewBox="0 0 22 20" version="1.1" xmlns="http://www.w3.org/2000/svg" xmlns:xlink="http://www.w3.org/1999/xlink">
    <!-- Generator: Sketch 53.1 (72631) - https://sketchapp.com -->
    <title>icon</title>
    <desc>Created with Sketch.</desc>
    <g id="2.1-话题_后台入口调整" stroke="none" stroke-width="1" fill="none" fill-rule="evenodd">
        <g id="2.1-后台入口调整" transform="translate(-190.000000, -480.000000)">
            <g id="tags" transform="translate(174.000000, 469.000000)">
                <g id="icon" transform="translate(16.000000, 11.000000)">
                    <rect id="Rectangle" fill-opacity="0" fill="#D8D8D8" x="0" y="0" width="22" height="20"></rect>
                    <path d="M22,9 L20,9 L20,2 L2,2 L2,14 L14,14 L14,16 L1,16 C0.44771525,16 6.76353751e-17,15.5522847 0,15 L0,1 C-6.76353751e-17,0.44771525 0.44771525,1.01453063e-16 1,0 L21,0 C21.5522847,-1.01453063e-16 22,0.44771525 22,1 L22,9 Z" id="Combined-Shape" fill="#9B9B9B"></path>
                    <rect id="Rectangle" fill="#9B9B9B" x="3" y="18" width="16" height="2" rx="1"></rect>
                    <path d="M22,14.4774696 C21.923274,14.754675 21.8093002,15.0263089 21.6562738,15.2860957 C21.5032474,15.5458825 21.3202198,15.7784399 21.11366,15.982174 C20.7759103,15.7993173 20.3544041,15.7847265 20.0007606,15.9793132 C19.6473951,16.1737546 19.4498048,16.5286259 19.4465947,16.8986113 C18.8633053,17.0378799 18.2404425,17.0360199 17.6366764,16.8784649 C17.6246813,16.5079723 17.4182647,16.1479726 17.0597303,15.9450827 C16.7011959,15.7421928 16.2799031,15.74698 15.9465498,15.9220445 C15.505456,15.4883272 15.1923812,14.9605524 15.0237899,14.3958044 C15.3490924,14.2080869 15.5638474,13.8629197 15.5589701,13.4657626 C15.5540864,13.0682901 15.3304381,12.7177873 15,12.5225345 C15.076726,12.2453291 15.1906998,11.9736952 15.3437262,11.7139084 C15.4967526,11.4541215 15.6797802,11.2215642 15.88634,11.0178301 C16.2240784,11.2006895 16.6455959,11.2152776 16.9992322,11.0206868 C17.3525977,10.8262454 17.550188,10.4713741 17.5533981,10.1013887 C18.1366875,9.9621201 18.7595503,9.9639801 19.3633164,10.1215351 C19.3753115,10.4920277 19.581728,10.8520274 19.9402625,11.0549173 C20.2987969,11.2578072 20.7200897,11.25302 21.053443,11.0779555 C21.4945408,11.511666 21.8076229,12.0394448 21.9762101,12.6041996 C21.6509076,12.7919172 21.4361454,13.1370803 21.4410299,13.5342415 C21.4459136,13.931714 21.6695619,14.2822168 22,14.4774696 Z M18.5078804,14.822453 C19.2626912,14.822453 19.874587,14.2227065 19.874587,13.4828827 C19.874587,12.7430589 19.2626912,12.1433124 18.5078804,12.1433124 C17.7530696,12.1433124 17.1411737,12.7430589 17.1411737,13.4828827 C17.1411737,14.2227065 17.7530696,14.822453 18.5078804,14.822453 Z" id="Shape" fill="#9B9B9B" fill-rule="nonzero"></path>
                    <path d="M5,8 L5,8 C5.55228475,8 6,8.44771525 6,9 L6,12 L4,12 L4,9 C4,8.44771525 4.44771525,8 5,8 Z" id="Rectangle" fill="#9B9B9B"></path>
                    <path d="M9,4 L9,4 C9.55228475,4 10,4.44771525 10,5 L10,12 L8,12 L8,5 C8,4.44771525 8.44771525,4 9,4 Z" id="Rectangle" fill="#9B9B9B"></path>
                    <path d="M13,6 L13,6 C13.5522847,6 14,6.44771525 14,7 L14,12 L12,12 L12,7 C12,6.44771525 12.4477153,6 13,6 Z" id="Rectangle" fill="#9B9B9B"></path>
                </g>
            </g>
        </g>
    </g>
</svg>