
<svg width="18px" height="16px" viewBox="0 0 18 16" version="1.1" xmlns="http://www.w3.org/2000/svg" xmlns:xlink="http://www.w3.org/1999/xlink">
    <g id="1.9.1-分区" stroke="none" stroke-width="1" fill="none" fill-rule="evenodd">
        <g id="1.9-信息流-分区-选项菜单" transform="translate(-921.000000, -761.000000)">
            <g id="dropdown-menu" transform="translate(905.000000, 515.000000)">
                <g id="举报" transform="translate(16.000000, 245.000000)">
                    <g id="icon/alert">
                        <g id="--" transform="translate(0.000000, 1.000000)">
                            <path d="M9.26309404,1.92774535 C9.23560116,1.87756975 9.19433359,1.83630218 9.14415799,1.8088093 C8.99885516,1.72919304 8.81652222,1.78244253 8.73690596,1.92774535 L1.76275793,14.655842 C1.73854441,14.7000326 1.72585198,14.7496104 1.72585198,14.8 C1.72585198,14.9656854 1.86016655,15.1 2.02585198,15.1 L15.974148,15.1 C16.0245376,15.1 16.0741154,15.0873076 16.118306,15.063094 C16.2636088,14.9834778 16.3168583,14.8011448 16.2372421,14.655842 L9.26309404,1.92774535 Z" id="Triangle" stroke="#F9B900" stroke-width="1.8"></path>
                            <path d="M9,7 L9,7 C9.41421356,7 9.75,7.33578644 9.75,7.75 L9.75,10 C9.75,10.4142136 9.41421356,10.75 9,10.75 L9,10.75 C8.58578644,10.75 8.25,10.4142136 8.25,10 L8.25,7.75 C8.25,7.33578644 8.58578644,7 9,7 Z" id="Rectangle" fill="#F9B900"></path>
                            <circle id="Oval" fill="#F9B900" cx="9" cy="12.25" r="1"></circle>
                        </g>
                    </g>
                </g>
            </g>
        </g>
    </g>
</svg>