
<svg width="20px" height="20px" viewBox="0 0 20 20" version="1.1" xmlns="http://www.w3.org/2000/svg" xmlns:xlink="http://www.w3.org/1999/xlink">
    <g id="Symbols" stroke="none" stroke-width="1" fill="none" fill-rule="evenodd">
        <g id="NavigationBar" transform="translate(-198.000000, -17.000000)">
            <g id="Group-14" transform="translate(66.000000, 17.000000)">
                <g id="mouseover" transform="translate(132.000000, 0.000000)">
                    <rect id="Rectangle-4" fill="#00BCB8" x="0" y="0" width="20" height="20" rx="10"></rect>
                    <g id="icon" transform="translate(4.500000, 5.000000)">
                        <rect id="Rectangle" fill-opacity="0" fill="#D8D8D8" x="0" y="0" width="11" height="10"></rect>
                        <path d="M11,4.5 L10,4.5 L10,1 L1,1 L1,7 L7,7 L7,8 L1,8 C0.44771525,8 6.76353751e-17,7.55228475 0,7 L0,1 C-6.76353751e-17,0.44771525 0.44771525,1.01453063e-16 1,0 L10,0 C10.5522847,-1.01453063e-16 11,0.44771525 11,1 L11,4.5 Z" id="Combined-Shape" fill="#FFFFFF"></path>
                        <rect id="Rectangle" fill="#FFFFFF" x="1.5" y="9" width="8" height="1" rx="0.5"></rect>
                        <path d="M11,7.23873479 C10.961637,7.37733748 10.9046501,7.51315446 10.8281369,7.64304786 C10.7516237,7.77294127 10.6601099,7.88921993 10.55683,7.99108699 C10.3879552,7.89965867 10.177202,7.89236326 10.0003803,7.98965661 C9.82369754,8.0868773 9.72490241,8.26431296 9.72329734,8.44930565 C9.43165263,8.51893995 9.12022123,8.51800995 8.8183382,8.43923244 C8.81234066,8.25398613 8.70913237,8.07398632 8.52986515,7.97254136 C8.35059793,7.87109641 8.13995153,7.87349 7.97327489,7.96102226 C7.75272801,7.74416358 7.59619059,7.4802762 7.51189494,7.19790222 C7.6745462,7.10404345 7.78192369,6.93145984 7.77948507,6.73288132 C7.7770432,6.53414505 7.66521906,6.35889366 7.5,6.26126725 C7.538363,6.12266456 7.59534991,5.98684758 7.6718631,5.85695418 C7.74837629,5.72706077 7.8398901,5.61078211 7.94317002,5.50891505 C8.11203921,5.60034477 8.32279797,5.60763879 8.4996161,5.51034339 C8.67629886,5.4131227 8.77509399,5.23568704 8.77669906,5.05069435 C9.06834376,4.98106005 9.37977516,4.98199005 9.6816582,5.06076756 C9.68765573,5.24601387 9.79086402,5.42601368 9.97013125,5.52745864 C10.1493985,5.62890359 10.3600449,5.62651 10.5267215,5.53897774 C10.7472704,5.75583298 10.9038114,6.0197224 10.9881051,6.30209982 C10.8254538,6.39595859 10.7180727,6.56854016 10.7205149,6.76712073 C10.7229568,6.96585699 10.8347809,7.14110838 11,7.23873479 Z M9.2539402,7.41122648 C9.63134558,7.41122648 9.93729352,7.11135323 9.93729352,6.74144135 C9.93729352,6.37152946 9.63134558,6.07165621 9.2539402,6.07165621 C8.87653481,6.07165621 8.57058687,6.37152946 8.57058687,6.74144135 C8.57058687,7.11135323 8.87653481,7.41122648 9.2539402,7.41122648 Z" id="Shape" fill="#FFFFFF" fill-rule="nonzero"></path>
                        <path d="M2.5,4 L2.5,4 C2.77614237,4 3,4.22385763 3,4.5 L3,6 L2,6 L2,4.5 C2,4.22385763 2.22385763,4 2.5,4 Z" id="Rectangle" fill="#FFFFFF"></path>
                        <path d="M4.5,2 L4.5,2 C4.77614237,2 5,2.22385763 5,2.5 L5,6 L4,6 L4,2.5 C4,2.22385763 4.22385763,2 4.5,2 Z" id="Rectangle" fill="#FFFFFF"></path>
                        <path d="M6.5,3 L6.5,3 C6.77614237,3 7,3.22385763 7,3.5 L7,6 L6,6 L6,3.5 C6,3.22385763 6.22385763,3 6.5,3 Z" id="Rectangle" fill="#FFFFFF"></path>
                    </g>
                </g>
            </g>
        </g>
    </g>
</svg>