<?xml version="1.0" standalone="no"?><!DOCTYPE svg PUBLIC "-//W3C//DTD SVG 1.1//EN" "http://www.w3.org/Graphics/SVG/1.1/DTD/svg11.dtd"><svg t="1585816706673" class="icon" viewBox="0 0 1024 1024" version="1.1" xmlns="http://www.w3.org/2000/svg" p-id="4049" xmlns:xlink="http://www.w3.org/1999/xlink" width="200" height="200"><defs><style type="text/css"></style></defs><path d="M85.333333 960a42.666667 42.666667 0 0 1-42.666666-42.666667V469.333333a42.666667 42.666667 0 0 1 42.666666-42.666666h170.666667a42.666667 42.666667 0 0 1 42.56 39.530666 107.946667 107.946667 0 0 0 30.208-12.586666 100.053333 100.053333 0 0 0 8.277333-5.717334 132.48 132.48 0 0 0 19.2-18.218666 173.717333 173.717333 0 0 0 26.176-40.448l133.248-299.882667A42.666667 42.666667 0 0 1 554.666667 64h64.106666A106.709333 106.709333 0 0 1 725.333333 170.517333a42.666667 42.666667 0 0 1-0.682666 7.616L691.114667 362.666667h174.122666c72.789333 0 125.482667 60.373333 114.688 131.84-0.874667 10.154667-3.349333 27.349333-8.213333 51.584-8.448 41.898667-21.674667 91.861333-40.746667 149.909333-2.026667 6.101333-4.053333 12.138667-6.122666 18.133333-18.346667 53.312-38.101333 99.904-57.92 139.52-11.754667 23.466667-21.184 39.978667-27.136 49.28C820.202667 935.957333 778.133333 960 739.626667 960H85.333333z m213.333334-85.333333h440.96c8.426667 0 22.741333-8.256 26.794666-15.317334l1.173334-1.92c0.853333-1.344 2.858667-4.586667 5.802666-9.728 5.12-8.938667 10.922667-19.690667 17.216-32.234666 18.176-36.330667 36.437333-79.445333 53.546667-129.130667 1.92-5.610667 3.84-11.264 5.717333-17.002667 18.026667-54.848 30.421333-101.546667 38.186667-140.074666 2.645333-13.226667 4.544-24.405333 5.802667-33.557334 0.704-5.141333 1.024-8.256 1.109333-9.365333l0.469333-3.904c3.328-19.946667-9.152-34.432-30.208-34.432H640a42.666667 42.666667 0 0 1-41.984-50.304l41.813333-229.973333A21.418667 21.418667 0 0 0 618.752 149.333333H582.4l-121.237333 272.768c-7.04 17.045333-20.202667 40.277333-40.618667 63.68-9.578667 10.986667-20.053333 20.992-31.509333 29.802667-5.034667 3.84-10.218667 7.424-15.552 10.688a193.642667 193.642667 0 0 1-63.573334 24.810667 204.181333 204.181333 0 0 1-11.242666 1.941333V874.666667z m-170.666667 0h85.333333V512H128v362.666667z" p-id="4050"></path></svg>