
<svg width="50px" height="52px" viewBox="0 0 50 52" version="1.1" xmlns="http://www.w3.org/2000/svg" xmlns:xlink="http://www.w3.org/1999/xlink">
    <defs>
        <rect id="path-1" x="0" y="0" width="48" height="48"></rect>
        <filter x="-7.3%" y="-5.2%" width="114.6%" height="114.6%" filterUnits="objectBoundingBox" id="filter-2">
            <feOffset dx="0" dy="1" in="SourceAlpha" result="shadowOffsetOuter1"></feOffset>
            <feGaussianBlur stdDeviation="1" in="shadowOffsetOuter1" result="shadowBlurOuter1"></feGaussianBlur>
            <feColorMatrix values="0 0 0 0 0   0 0 0 0 0   0 0 0 0 0  0 0 0 0.044214221 0" type="matrix" in="shadowBlurOuter1"></feColorMatrix>
        </filter>
    </defs>
    <g id="2.1.3-信息流" stroke="none" stroke-width="1" fill="none" fill-rule="evenodd">
        <g id="侧边栏常规" transform="translate(0.000000, -71.000000)">
            <g id="编组" transform="translate(0.000000, 72.000000)">
                <g id="矩形">
                    <use fill="black" fill-opacity="1" filter="url(#filter-2)" xlink:href="#path-1"></use>
                    <use fill="#FFFFFF" fill-rule="evenodd" xlink:href="#path-1"></use>
                </g>
                <g id="icon-spaceprofile" transform="translate(2.000000, 2.000000)">
                    <rect id="Rectangle-3-Copy" x="0" y="0" width="44" height="44"></rect>
                    <path d="M14.5,14 L30.5,14 C30.7761424,14 31,14.2238576 31,14.5 L31,15.5 C31,15.7761424 30.7761424,16 30.5,16 L14.5,16 C14.2238576,16 14,15.7761424 14,15.5 L14,14.5 C14,14.2238576 14.2238576,14 14.5,14 Z M14.5,20 L30.5,20 C30.7761424,20 31,20.2238576 31,20.5 L31,21.5 C31,21.7761424 30.7761424,22 30.5,22 L14.5,22 C14.2238576,22 14,21.7761424 14,21.5 L14,20.5 C14,20.2238576 14.2238576,20 14.5,20 Z M14.5,26 L30.5,26 C30.7761424,26 31,26.2238576 31,26.5 L31,27.5 C31,27.7761424 30.7761424,28 30.5,28 L14.5,28 C14.2238576,28 14,27.7761424 14,27.5 L14,26.5 C14,26.2238576 14.2238576,26 14.5,26 Z" id="Combined-Shape" fill="#4A4A4A"></path>
                </g>
            </g>
        </g>
    </g>
</svg>