
<svg width="48px" height="48px" viewBox="0 0 48 48" version="1.1" xmlns="http://www.w3.org/2000/svg" xmlns:xlink="http://www.w3.org/1999/xlink">
    <g id="2.1.3-信息流" stroke="none" stroke-width="1" fill="none" fill-rule="evenodd">
        <g id="侧边栏-展开" transform="translate(-18.000000, -102.000000)">
            <g id="cells/homesearch" transform="translate(18.000000, 102.000000)">
                <path d="M24,0 L24,0 C37.254834,-2.4348735e-15 48,10.745166 48,24 L48,24 C48,37.254834 37.254834,48 24,48 L24,48 C10.745166,48 1.623249e-15,37.254834 0,24 L0,24 C-1.623249e-15,10.745166 10.745166,2.4348735e-15 24,0 Z" id="Rectangle-33" fill="#F4F4F4"></path>
                <polygon id="Fill-1" fill="#4A4A4A" points="34 21.3372293 18.7365626 21.3372293 24.3152695 15.7351568 22.5858982 14 14 22.619745 22.5858982 31.2393782 24.3903696 29.4284505 18.7365626 23.9020371 34 23.9020371"></polygon>
            </g>
        </g>
    </g>
</svg>