<?xml version="1.0" encoding="UTF-8"?>
<svg width="16px" height="14px" viewBox="0 0 16 14" version="1.1" xmlns="http://www.w3.org/2000/svg" xmlns:xlink="http://www.w3.org/1999/xlink">
    <!-- Generator: Sketch 53.2 (72643) - https://sketchapp.com -->
    <title>action-sheet-icon/selection</title>
    <desc>Created with Sketch.</desc>
    <g id="1.9-置顶加精" stroke="none" stroke-width="1" fill="none" fill-rule="evenodd" stroke-linecap="round" stroke-linejoin="round">
        <g id="乌托邦首页-信息流-取消置顶" transform="translate(-890.000000, -302.000000)" stroke="#758C94" stroke-width="2">
            <g id="话题详情" transform="translate(430.000000, 190.000000)">
                <g id="dropdown-menu/6-sections" transform="translate(450.000000, 52.000000)">
                    <g id="dropdown-menu">
                        <g id="Group-4" transform="translate(1.000000, 16.000000)">
                            <g id="action-sheet-icon/selection" transform="translate(9.000000, 43.000000)">
                                <path d="M7.98863233,2 L4.96738147,2 C4.91009862,2 4.85560877,2.02474769 4.81791652,2.06788259 L1.18490542,6.22549041 C1.05116129,6.37854682 1.05463199,6.60789975 1.1929461,6.75683921 L7.84342792,13.9182143 C7.91802424,13.9985411 8.04361427,14.0031867 8.12394111,13.9285903 C8.12744655,13.925335 8.13083315,13.921954 8.13409429,13.9184539 L14.8056345,6.75811081 C14.9448507,6.60869462 14.94799,6.37803241 14.8128917,6.22488282 L11.1452462,2.06718258 C11.1075669,2.02446875 11.0533537,2 10.9963959,2 L7.98863233,2 Z" id="Path-3"></path>
                            </g>
                        </g>
                    </g>
                </g>
            </g>
        </g>
    </g>
</svg>