
<svg width="13px" height="12px" viewBox="0 0 13 12" version="1.1" xmlns="http://www.w3.org/2000/svg" xmlns:xlink="http://www.w3.org/1999/xlink">
    <g id="1.9.x-tab-切换" stroke="none" stroke-width="1" fill="none" fill-rule="evenodd">
        <g id="1.9-信息流-分区-copy" transform="translate(-909.000000, -625.000000)" fill="#9B9A9A">
            <g id="编组-3" transform="translate(449.000000, 610.000000)">
                <g id="编组-2" transform="translate(16.000000, 11.000000)">
                    <g id="sort" transform="translate(444.000000, 3.000000)">
                        <path d="M13,3.43431458 L13,12.2343146 C13,12.3447715 12.9104569,12.4343146 12.8,12.4343146 L11.2,12.4343146 C11.0895431,12.4343146 11,12.3447715 11,12.2343146 L11,5.43431458 L8.96568542,5.43431458 C8.74477153,5.43431458 8.56568542,5.25522847 8.56568542,5.03431458 C8.56568542,4.92822798 8.60782816,4.82648641 8.68284271,4.75147186 L12.3171573,1.11715729 C12.473367,0.960947571 12.726633,0.960947571 12.8828427,1.11715729 C12.9578573,1.19217184 13,1.2939134 13,1.4 L13,3.43431458 Z M0.200000003,2.43431458 L6.8,2.43431458 C6.91045695,2.43431458 7,2.52385763 7,2.63431458 L7,4.23431457 C7,4.34477152 6.91045695,4.43431458 6.8,4.43431458 L0.200000003,4.43431458 C0.0895430514,4.43431458 4.12826508e-17,4.34477152 2.77555756e-17,4.23431457 L0,2.63431458 C-1.35270752e-17,2.52385763 0.0895430514,2.43431458 0.200000003,2.43431458 Z M0.200000003,6.43431458 L8.8,6.43431458 C8.91045695,6.43431458 9,6.52385763 9,6.63431458 L9,8.23431457 C9,8.34477152 8.91045695,8.43431458 8.8,8.43431458 L0.200000003,8.43431458 C0.0895430514,8.43431458 -5.18968239e-15,8.34477152 -5.30131494e-15,8.23431457 L-5.32907052e-15,6.63431458 C-5.34259759e-15,6.52385763 0.0895430514,6.43431458 0.200000003,6.43431458 Z M0.200000003,10.4343146 L8.8,10.4343146 C8.91045695,10.4343146 9,10.5238576 9,10.6343146 L9,12.2343146 C9,12.3447715 8.91045695,12.4343146 8.8,12.4343146 L0.200000003,12.4343146 C0.0895430514,12.4343146 -5.18968239e-15,12.3447715 -5.30131494e-15,12.2343146 L-5.32907052e-15,10.6343146 C-5.34259759e-15,10.5238576 0.0895430514,10.4343146 0.200000003,10.4343146 Z" id="Combined-Shape" transform="translate(6.500000, 6.717157) scale(1, -1) translate(-6.500000, -6.717157) "></path>
                    </g>
                </g>
            </g>
        </g>
    </g>
</svg>