
<svg width="16px" height="15px" viewBox="0 0 16 15" version="1.1" xmlns="http://www.w3.org/2000/svg" xmlns:xlink="http://www.w3.org/1999/xlink">
    <g id="1.9.1-分区" stroke="none" stroke-width="1" fill="none" fill-rule="evenodd" stroke-linecap="round" stroke-linejoin="round">
        <g id="1.9-信息流-分区-选项菜单" transform="translate(-922.000000, -727.000000)" stroke="#758C94" stroke-width="1.9">
            <g id="dropdown-menu" transform="translate(905.000000, 515.000000)">
                <g id="收藏" transform="translate(16.000000, 211.000000)">
                    <g id="icon/star">
                        <path d="M8.99996734,13.4508768 L4.97581219,14.9783076 C4.8167397,15.0386861 4.63883958,14.9586787 4.57846114,14.7996063 C4.56303808,14.7589728 4.55638708,14.7155359 4.55894509,14.6721492 L4.80596419,10.4824417 L2.08400186,7.24125756 C1.9745803,7.11096353 1.99150077,6.91663565 2.1217948,6.80721409 C2.15718231,6.77749549 2.19880209,6.75611849 2.2435717,6.74466631 L6.40793084,5.67941266 L8.74276467,2.13818718 C8.83642181,1.99613806 9.02749949,1.95690862 9.1695486,2.05056577 C9.2043888,2.07353693 9.23419884,2.10334698 9.25717,2.13818718 L11.5920038,5.67941266 L15.756363,6.74466631 C15.9212012,6.78683234 16.0206466,6.95464244 15.9784806,7.11948065 C15.9670284,7.16425027 15.9456514,7.20587005 15.9159328,7.24125756 L13.1939705,10.4824417 L13.4409896,14.6721492 C13.4510037,14.8420001 13.3214305,14.9878095 13.1515796,14.9978237 C13.1081929,15.0003817 13.0647559,14.9937307 13.0241225,14.9783076 L8.99996734,13.4508768 Z" id="Star"></path>
                    </g>
                </g>
            </g>
        </g>
    </g>
</svg>